<svg xmlns="http://www.w3.org/2000/svg" viewBox="0 0 640 900">
  <title>Toddler Guide Import</title>

  <g id="upper_leg_L" data-name="upper_leg_L" data-pivot="45,20" data-joint="hip" transform="translate(248 482) rotate(2 45 20)">
    <circle cx="45" cy="20" r="18" fill="#F7CAB1"/>
    <rect x="27" y="20" width="36" height="82" rx="18" fill="#F7CAB1"/>
  </g>

  <g id="upper_leg_R" data-name="upper_leg_R" data-pivot="45,20" data-joint="hip" transform="translate(332 482) rotate(-2 45 20)">
    <circle cx="45" cy="20" r="18" fill="#F7CAB1"/>
    <rect x="27" y="20" width="36" height="82" rx="18" fill="#F7CAB1"/>
  </g>

  <g id="lower_leg_L" data-name="lower_leg_L" data-pivot="40,16" data-joint="knee" transform="translate(242 586) rotate(6 40 16)">
    <circle cx="40" cy="16" r="16" fill="#F7CAB1"/>
    <rect x="24" y="16" width="32" height="78" rx="16" fill="#F7CAB1"/>
  </g>

  <g id="lower_leg_R" data-name="lower_leg_R" data-pivot="40,16" data-joint="knee" transform="translate(334 586) rotate(-6 40 16)">
    <circle cx="40" cy="16" r="16" fill="#F7CAB1"/>
    <rect x="24" y="16" width="32" height="78" rx="16" fill="#F7CAB1"/>
  </g>

  <g id="foot_L" data-name="foot_L" data-pivot="42,22" data-joint="ankle" transform="translate(226 670) rotate(4 42 22)">
    <path fill="#F29AA8" d="M18 28c0-12 10-20 22-20h18c20 0 34 12 34 28 0 12-10 20-30 20H34C24 56 18 46 18 28z"/>
    <path fill="#E88799" d="M24 40c8 4 20 6 36 6 12 0 22-2 30-6-4 10-12 16-28 16H34c-8 0-14-6-10-16z"/>
  </g>

  <g id="foot_R" data-name="foot_R" data-pivot="42,22" data-joint="ankle" transform="translate(320 670) rotate(-4 42 22)">
    <path fill="#F29AA8" d="M18 28c0-12 10-20 22-20h18c20 0 34 12 34 28 0 12-10 20-30 20H34C24 56 18 46 18 28z"/>
    <path fill="#E88799" d="M24 40c8 4 20 6 36 6 12 0 22-2 30-6-4 10-12 16-28 16H34c-8 0-14-6-10-16z"/>
  </g>

  <g id="upper_arm_L" data-name="upper_arm_L" data-pivot="40,20" data-joint="shoulder" transform="translate(206 324) rotate(-26 40 20)">
    <circle cx="40" cy="20" r="17" fill="#F7CAB1"/>
    <rect x="23" y="20" width="34" height="74" rx="17" fill="#F7CAB1"/>
  </g>

  <g id="upper_arm_R" data-name="upper_arm_R" data-pivot="40,20" data-joint="shoulder" transform="translate(354 324) rotate(26 40 20)">
    <circle cx="40" cy="20" r="17" fill="#F7CAB1"/>
    <rect x="23" y="20" width="34" height="74" rx="17" fill="#F7CAB1"/>
  </g>

  <g id="lower_arm_L" data-name="lower_arm_L" data-pivot="35,16" data-joint="elbow" transform="translate(170 402) rotate(-18 35 16)">
    <circle cx="35" cy="16" r="14" fill="#F7CAB1"/>
    <rect x="20" y="16" width="30" height="74" rx="15" fill="#F7CAB1"/>
  </g>

  <g id="lower_arm_R" data-name="lower_arm_R" data-pivot="35,16" data-joint="elbow" transform="translate(390 402) rotate(18 35 16)">
    <circle cx="35" cy="16" r="14" fill="#F7CAB1"/>
    <rect x="20" y="16" width="30" height="74" rx="15" fill="#F7CAB1"/>
  </g>

  <g id="hand_L" data-name="hand_L" data-pivot="34,26" data-joint="wrist" transform="translate(154 480) rotate(-10 34 26)">
    <path fill="#F7CAB1" d="M20 18c6-8 14-12 24-12 10 0 18 6 22 16 4 10 0 28-12 34-8 4-26 4-34-8-6-10-6-22 0-30z"/>
  </g>

  <g id="hand_R" data-name="hand_R" data-pivot="34,26" data-joint="wrist" transform="translate(410 480) rotate(10 34 26)">
    <path fill="#F7CAB1" d="M20 18c6-8 14-12 24-12 10 0 18 6 22 16 4 10 0 28-12 34-8 4-26 4-34-8-6-10-6-22 0-30z"/>
  </g>

  <g id="torso" data-name="torso" data-pivot="120,34" data-joint="core" transform="translate(200 290)">
    <rect x="98" y="8" width="44" height="34" rx="18" fill="#F7CAB1"/>
    <path fill="#F4B6C8" d="M60 44c10-18 34-28 60-28s50 10 60 28l18 88c8 38-16 74-54 74H96c-38 0-62-36-54-74l18-88z"/>
    <path fill="#FFFFFF" d="M78 54c10-12 26-18 42-18s32 6 42 18c-18 6-30 8-42 8s-24-2-42-8z"/>
    <path fill="#E89DB6" d="M74 126h92c18 0 32 14 32 32s-14 30-32 30H74c-18 0-32-12-32-30s14-32 32-32z"/>
    <circle cx="62" cy="52" r="10" fill="#F4B6C8"/>
    <circle cx="178" cy="52" r="10" fill="#F4B6C8"/>
    <circle cx="92" cy="198" r="10" fill="#E89DB6"/>
    <circle cx="148" cy="198" r="10" fill="#E89DB6"/>
  </g>

  <g id="head_base" data-name="head_base" data-pivot="130,228" data-joint="neck" transform="translate(190 48)">
    <path fill="#8A6551" d="M46 110C46 58 84 24 130 24s84 34 84 86v52c0 30-26 54-58 54H104c-32 0-58-24-58-54v-52z"/>
    <ellipse cx="130" cy="136" rx="94" ry="98" fill="#F7CAB1"/>
    <path fill="#8A6551" d="M58 88c12-34 42-52 72-52 38 0 70 22 78 58-22-12-36-16-50-16-14 0-20 12-28 12s-14-12-28-12c-14 0-28 4-44 10z"/>
    <ellipse cx="60" cy="136" rx="10" ry="16" fill="#F0C2A8"/>
    <ellipse cx="200" cy="136" rx="10" ry="16" fill="#F0C2A8"/>
    <path fill="#5F4A44" d="M76 104c10-8 20-12 34-12 14 0 24 4 34 12-12-4-24-6-34-6s-22 2-34 6z"/>
    <path fill="#5F4A44" d="M116 104c10-8 20-12 34-12 14 0 24 4 34 12-12-4-24-6-34-6s-22 2-34 6z"/>
    <ellipse cx="84" cy="162" rx="16" ry="8" fill="#F3A8AF" opacity="0.45"/>
    <ellipse cx="176" cy="162" rx="16" ry="8" fill="#F3A8AF" opacity="0.45"/>
    <ellipse cx="130" cy="150" rx="4" ry="3" fill="#E7B59B"/>
  </g>

  <g id="eyes" data-name="eyes" transform="translate(190 48)">
    <ellipse cx="94" cy="132" rx="24" ry="29" fill="#FFFDFB"/>
    <ellipse cx="166" cy="132" rx="24" ry="29" fill="#FFFDFB"/>
    <ellipse cx="98" cy="136" rx="13" ry="18" fill="#5F4A44"/>
    <ellipse cx="162" cy="136" rx="13" ry="18" fill="#5F4A44"/>
    <circle cx="92" cy="124" r="5" fill="#FFFFFF"/>
    <circle cx="156" cy="124" r="5" fill="#FFFFFF"/>
  </g>

  <g id="mouth" data-name="mouth" transform="translate(190 48)">
    <path d="M114 174c6 8 26 8 32 0" fill="none" stroke="#B56E6E" stroke-linecap="round" stroke-width="4"/>
  </g>
</svg>
